{"title":"Akira Kurosawa-Red Beard (1965)","uid":7019794,"size":7926908991,"categoryP":"video","categoryS":"hd___movies","magnet":"?xt=urn:btih:f2d690aa17b4fe8ef860af2cace0320a5f06125c&amp;dn=Akira+Kurosawa-Red+Beard+%281965%29&amp;tr=udp%3A%2F%2Ftracker.openbittorrent.com%3A80&amp;tr=udp%3A%2F%2Fopen.demonii.com%3A1337&amp;tr=udp%3A%2F%2Ftracker.coppersurfer.tk%3A6969&amp;tr=udp%3A%2F%2Fexodus.desync.com%3A6969","seeders":2,"leechers":0,"uploader":"mfccorrea","files":3,"time":1328795597,"description":"&quot;Perhaps the clearest statement of the humanism that was the guiding force of Akira Kurosawa's career, it was loosely inspired by the Dostoevsky story The Insulted and the Injured. One of the most difficult shoots in the history of Japanese film, its two arduous years of production were marred by a series of skirmishes between Kurosawa and Toshiro Mifune, which would eventually lead to the end of their long collaboration. On its surface, the dynamics of this master-student plot might seem trite, and indeed the film isn't without the odd moment of cornball sentiment, but on the whole, its exploration of the harrowing journey endured by the haughty young doctor and his subsequent transformation is far closer in spirit to Dostoevsky than Dr. Kildare. Eschewing the visual pyrotechnics and virtuoso editing of his action films, the director opts for stark, austere master scenes better suited to the grim atmosphere of the clinic which is both the sole lifeline of its desperate patients and a medical boot camp for the sullen Yasumoto. While hardly scanting the suffering of these people -- especially a gruesome operation and and the treatment of a sexually abused girl -- Kurosawa makes clear that it is ignorance and poverty which are the true source of their misery. Yuzo Kayama gives a richly textured performance as the sulky intern, and Mifune, whose gruff character remains largely unexplored is as compelling as ever. -- Michael Costello&quot;\n\n   General\n      Complete name : Akira Kurosawa-Red Beard.mkv\n      Format : Matroska\n      File size : 7.38 GiB\n      Duration : 3h 5mn\n      Overall bit rate : 5 697 Kbps\n      Movie name : Akira Kurosawa-Red Beard (1965)\n      Encoded date : UTC 2012-01-01 15:25:14\n      Writing application : mkvmerge v5.2.0 ('I can't explain') built on Dec 18 2011 18:12:03\n      Writing library : libebml v1.2.3 + libmatroska v1.3.0\n   Video #1\n      ID : 1\n      Format : AVC\n      Format/Info : Advanced Video Codec\n      Format profile : &lt;a class=&quot;__cf_email__&quot; href=&quot;/cdn-cgi/l/email-protection&quot; data-cfemail=&quot;4e062729260e027a607e&quot;&gt;[email&amp;#160;protected]&lt;/a&gt;&lt;script cf-hash='f9e31' type=&quot;text/javascript&quot;&gt;\n/* &lt;![CDATA[ */!function(){try{var t=&quot;currentScript&quot;in document?document.currentScript:function(){for(var t=document.getElementsByTagName(&quot;script&quot;),e=t.length;e--;)if(t[e].getAttribute(&quot;cf-hash&quot;))return t[e]}();if(t&amp;&amp;t.previousSibling){var e,r,n,i,c=t.previousSibling,a=c.getAttribute(&quot;data-cfemail&quot;);if(a){for(e=&quot;&quot;,r=parseInt(a.substr(0,2),16),n=2;a.length-n;n+=2)i=parseInt(a.substr(n,2),16)^r,e+=String.fromCharCode(i);e=document.createTextNode(e),c.parentNode.replaceChild(e,c)}}}catch(u){}}();/* ]]&gt; */&lt;/script&gt;\n      Format settings, CABAC : Yes\n      Format settings, ReFrames : 3 frames\n      Muxing mode : Container profile=&lt;a class=&quot;__cf_email__&quot; href=&quot;/cdn-cgi/l/email-protection&quot; data-cfemail=&quot;c095aeabaeafb7ae80f4eef0&quot;&gt;[email&amp;#160;protected]&lt;/a&gt;&lt;script cf-hash='f9e31' type=&quot;text/javascript&quot;&gt;\n/* &lt;![CDATA[ */!function(){try{var t=&quot;currentScript&quot;in document?document.currentScript:function(){for(var t=document.getElementsByTagName(&quot;script&quot;),e=t.length;e--;)if(t[e].getAttribute(&quot;cf-hash&quot;))return t[e]}();if(t&amp;&amp;t.previousSibling){var e,r,n,i,c=t.previousSibling,a=c.getAttribute(&quot;data-cfemail&quot;);if(a){for(e=&quot;&quot;,r=parseInt(a.substr(0,2),16),n=2;a.length-n;n+=2)i=parseInt(a.substr(n,2),16)^r,e+=String.fromCharCode(i);e=document.createTextNode(e),c.parentNode.replaceChild(e,c)}}}catch(u){}}();/* ]]&gt; */&lt;/script&gt;\n      Codec ID : V_MPEG4/ISO/AVC\n      Duration : 3h 5mn\n      Bit rate : 4 943 Kbps\n      Nominal bit rate : 5 056 Kbps\n      Width : 1 280 pixels\n      Height : 534 pixels\n      Display aspect ratio : 2.35:1\n      Frame rate : 23.976 fps\n      Resolution : 24 bits\n      Colorimetry : 4:2:0\n      Scan type : Progressive\n      Bits/(Pixel*Frame) : 0.302\n      Stream size : 6.40 GiB (87%)\n      Writing library : x264 core 114 r1924 08d04a4\n   Audio #2\n      ID : 2\n      Format : AC-3\n      Format/Info : Audio Coding 3\n      Codec ID : A_AC3\n      Duration : 3h 5mn\n      Bit rate mode : Constant\n      Bit rate : 640 Kbps\n      Channel(s) : 4 channels\n      Channel positions : Front: L C R, Surround: C\n      Sampling rate : 48.0 KHz\n      Stream size : 849 MiB (11%)\n      Language : Japanese\n   Text #3\n      ID : 3\n      Format : UTF-8\n      Codec ID : S_TEXT/UTF8\n      Codec ID/Info : UTF-8 Plain Text\n &lt;a href=&quot;\nhttp://www.imdb.com/title/tt0058888/&quot; rel=&quot;nofollow&quot; target=&quot;_NEW&quot;&gt;\nhttp://www.imdb.com/title/tt0058888/&lt;/a&gt;\n\nLanguage: Japanese\nSubtitles: English (in mkv) and Portuguese (srt)\n\nPosted originally at KG by EceAyhan, whom we thank","torrent":{"xt":"urn:btih:f2d690aa17b4fe8ef860af2cace0320a5f06125c","amp;dn":"Akira+Kurosawa-Red+Beard+%281965%29","amp;tr":["udp%3A%2F%2Ftracker.openbittorrent.com%3A80","udp%3A%2F%2Fopen.demonii.com%3A1337","udp%3A%2F%2Ftracker.coppersurfer.tk%3A6969","udp%3A%2F%2Fexodus.desync.com%3A6969"],"infoHash":"f2d690aa17b4fe8ef860af2cace0320a5f06125c","infoHashBuffer":{"type":"Buffer","data":[242,214,144,170,23,180,254,142,248,96,175,44,172,224,50,10,95,6,18,92]},"announce":[],"urlList":[]}}